<svg width="50" height="51" viewBox="0 0 50 51" fill="none" xmlns="http://www.w3.org/2000/svg">
<g clip-path="url(#clip0_529_534)">
<path d="M27.1133 25.4108C30.2728 23.9777 30.74 19.3013 26.2459 19.3013H21.0414L19.1181 23.0726H20.0232L17.7227 32.0861H23.7568C28.159 32.1237 30.1388 26.94 27.1133 25.4108ZM23.7568 28.805H22.2483L22.8139 26.7686H24.247C25.9441 27.1079 24.8882 28.8804 23.7568 28.805ZM24.6619 24.4679H23.3797L23.7568 22.6954H25.1898C26.5745 23.0349 25.3785 24.5434 24.6619 24.4679Z" fill="#005FAF" stroke="#005FAF" stroke-width="1.73022"/>
<path d="M39.468 24.1177L41.4438 20.6298L38.7703 19.2352L38.4215 19.6656C36.9793 18.9022 29.427 19.9563 28.9541 27.4063C29.2368 33.6559 36.2397 32.5317 36.9266 32.1352L38.8527 28.1536C36.9663 29.3961 33.1038 29.9926 32.9404 26.2602C33.2792 23.1824 36.9131 22.033 39.468 24.1177ZM49.3274 19.3012H43.2534L41.3227 22.9596H42.3145L37.737 32.086H42.1678L43.0774 29.8847H45.7972L45.865 32.086H49.9437L49.3274 19.3012ZM44.3097 26.921L45.7971 23.3704L45.8649 26.921H44.3097Z" fill="#005FAF" stroke="#005FAF" stroke-width="1.73022"/>
<path d="M11.3962 31.4757L11.6322 31.4073L11.3734 31.0497L11.3962 31.4757ZM7.5225 31.4149L7.47687 31.7345C7.59431 31.7231 7.73889 31.8243 7.79653 31.5975C7.7922 31.4208 7.65768 31.4111 7.5225 31.4149ZM9.40238 31.4073C9.38281 31.3202 9.31014 31.2561 9.12836 31.316L9.18924 31.6431C9.33858 31.6101 9.41536 31.5217 9.40238 31.4073ZM5.15568 31.1395L5.08301 31.4302C5.1998 31.4351 5.33659 31.5298 5.41413 31.3576C5.41932 31.2496 5.42375 31.1421 5.15568 31.1395ZM9.24256 31.8868L9.29587 32.2217C9.42055 32.2248 9.53431 32.1499 9.50133 31.9934C9.46954 31.8429 9.34312 31.8667 9.24256 31.8868Z" fill="#005FAF"/>
<path d="M14.1914 19.4737C10.1614 17.4206 5.34853 17.4777 1.50875 19.3841C-0.47127 22.8697 -0.534314 27.7467 1.50875 32.0662C5.73902 34.2069 10.4177 34.0659 14.2212 32.1557C16.0087 28.4884 16.3039 24.0755 14.1914 19.4737ZM7.38521 29.8818L7.14633 29.8845C7.08718 29.2244 6.9294 28.6696 6.59093 28.2451C5.03882 26.2987 1.86604 27.7641 2.68129 24.4562C3.1052 22.7652 7.94039 21.7678 7.38521 29.8818ZM2.68702 26.6147C3.02593 27.3045 5.14923 27.4175 5.8863 27.9455C7.05549 28.7831 6.88766 29.8848 6.88766 29.8848H6.61191C6.06905 28.2209 4.54549 29.5383 3.32515 29.0902C2.55899 28.8177 2.00272 27.6365 2.68702 26.6147ZM6.55557 32.039L6.66976 31.1334L6.87523 31.1486L6.78385 32.1455C6.69172 32.5847 6.03694 32.526 5.95432 32.1075L6.06084 31.0725L6.30436 31.1107L6.19785 31.9781C6.21137 32.2652 6.49934 32.2481 6.55557 32.039ZM5.46218 32.2863L5.22795 32.2298C5.25542 32.0362 5.485 31.6424 5.03125 31.6424L4.90494 32.1571L4.64649 32.1087L4.92106 30.873C5.59216 30.9461 5.65088 31.1328 5.66418 31.3333C5.63769 31.4888 5.59627 31.5974 5.46229 31.624C5.61909 31.7663 5.46413 32.0645 5.46218 32.2863ZM3.97452 30.9023C3.90996 30.9879 3.78074 31.2871 3.76203 31.5256C3.74213 31.7783 3.9849 31.7251 4.04535 31.6956C4.09412 31.6719 4.13035 31.4689 4.13035 31.4689L3.96035 31.4123L4.01702 31.2424L4.39961 31.3699L4.21545 32.0074L4.05963 31.9648L4.07379 31.8657C3.88304 31.9526 3.53386 31.8874 3.49287 31.6674C3.45189 31.4905 3.57603 30.9545 3.77619 30.7041C3.97074 30.4605 4.44471 30.6985 4.45628 30.8457C4.46774 30.9924 4.40989 31.1574 4.40989 31.1574L4.23146 31.1237C4.23146 31.1237 4.24238 31.0708 4.25795 30.9873C4.27439 30.8988 4.04373 30.8102 3.97452 30.9023ZM7.45366 31.94L7.40803 32.488L7.21781 32.4804L7.28626 31.179C7.76131 31.1888 8.03361 31.2546 8.02452 31.59C7.99619 32.0483 7.62506 31.9453 7.45366 31.94ZM7.9272 29.8847H7.60895C7.58072 28.7577 7.79743 26.6962 7.20527 25.1792C6.7566 24.0291 5.62115 23.5118 5.36951 22.5827C4.97112 21.1123 5.64915 19.5212 7.9272 19.3987C9.90213 19.6015 10.5089 21.1261 10.172 22.5457C9.59286 23.965 9.01356 23.761 8.29238 25.1748C7.70335 26.6904 7.92763 28.6759 7.9272 29.8847ZM11.4567 31.9705L11.236 32.0466L11.1675 30.7376L11.4262 30.6691L12.0656 31.7498L11.8905 31.8639L11.6773 31.5596L11.4338 31.6509L11.4567 31.9705ZM8.88185 29.8847H8.62729C8.83708 26.9903 12.4743 27.6191 12.8067 26.6147C13.3816 27.6104 13.1749 28.45 12.5747 28.8804C11.083 29.9503 9.65266 28.0886 8.88185 29.8847ZM10.2315 31.3465L10.3457 31.9478C10.4168 32.0863 10.465 32.0607 10.574 32.0467C10.7004 31.9552 10.674 31.8661 10.6501 31.7499L10.8708 31.7195C10.9284 32.1551 10.7213 32.1995 10.5664 32.2293C10.2343 32.2531 10.1692 32.1885 10.0794 31.7575C10.027 31.3887 9.93663 30.9992 10.2468 30.928C10.7559 30.8503 10.7258 31.0794 10.7719 31.24L10.5512 31.2782C10.5159 31.1402 10.4652 31.0855 10.3533 31.0956C10.2513 31.1424 10.2095 31.2183 10.2315 31.3465ZM9.76728 31.9705C9.77788 32.16 9.71354 32.2859 9.59221 32.3282L9.07466 32.4347L8.86919 31.179C8.97539 31.1617 9.49607 30.9709 9.62259 31.3161C9.68499 31.5269 9.62032 31.6025 9.54646 31.6966C9.6865 31.7415 9.73376 31.8505 9.76728 31.9705ZM8.43826 25.6689C9.59123 22.4226 12.2295 22.9963 12.8146 24.4564C13.6163 27.3861 11.035 26.5827 9.38155 27.7841C8.75662 28.3276 8.42777 28.9511 8.42291 29.8964H8.13958C8.12261 27.9925 8.09179 26.6443 8.43826 25.6689Z" fill="#005FAF"/>
</g>
<defs>
<clipPath id="clip0_529_534">
<rect width="50" height="50" fill="white" transform="translate(0 0.786743)"/>
</clipPath>
</defs>
</svg>
