<svg width="17" height="17" viewBox="0 0 17 17" fill="none" xmlns="http://www.w3.org/2000/svg">
<path d="M12.0416 12.75C12.4173 12.75 12.7776 12.8992 13.0433 13.1649C13.309 13.4306 13.4583 13.7909 13.4583 14.1666C13.4583 14.5423 13.309 14.9027 13.0433 15.1684C12.7776 15.434 12.4173 15.5833 12.0416 15.5833C11.6659 15.5833 11.3055 15.434 11.0399 15.1684C10.7742 14.9027 10.6249 14.5423 10.6249 14.1666C10.6249 13.3804 11.2553 12.75 12.0416 12.75ZM0.708252 1.41663H3.0245L3.69034 2.83329H14.1666C14.3544 2.83329 14.5346 2.90792 14.6675 3.04076C14.8003 3.1736 14.8749 3.35376 14.8749 3.54163C14.8749 3.66204 14.8395 3.78246 14.7899 3.89579L12.2541 8.47871C12.0133 8.91079 11.5458 9.20829 11.0145 9.20829H5.73742L5.09992 10.3629L5.07867 10.4479C5.07867 10.4948 5.09733 10.5399 5.13054 10.5731C5.16374 10.6063 5.20879 10.625 5.25575 10.625H13.4583V12.0416H4.95825C4.58253 12.0416 4.22219 11.8924 3.95652 11.6267C3.69084 11.361 3.54159 11.0007 3.54159 10.625C3.54159 10.377 3.60533 10.1433 3.71159 9.94496L4.67492 8.20954L2.12492 2.83329H0.708252V1.41663ZM4.95825 12.75C5.33398 12.75 5.69431 12.8992 5.95999 13.1649C6.22566 13.4306 6.37492 13.7909 6.37492 14.1666C6.37492 14.5423 6.22566 14.9027 5.95999 15.1684C5.69431 15.434 5.33398 15.5833 4.95825 15.5833C4.58253 15.5833 4.22219 15.434 3.95652 15.1684C3.69084 14.9027 3.54159 14.5423 3.54159 14.1666C3.54159 13.3804 4.172 12.75 4.95825 12.75ZM11.3333 7.79163L13.3024 4.24996H4.34909L6.02075 7.79163H11.3333Z" fill="black"/>
</svg>
