<svg width="31" height="30" viewBox="0 0 31 30" fill="none" xmlns="http://www.w3.org/2000/svg">
<path fill-rule="evenodd" clip-rule="evenodd" d="M4.465 6.465C3 7.92875 3 10.2863 3 15C3 19.7137 3 22.0712 4.465 23.535C5.93 24.9987 8.28625 25 13 25H18C22.7137 25 25.0712 25 26.535 23.535C27.9987 22.07 28 19.7137 28 15C28 10.2863 28 7.92875 26.535 6.465C25.07 5.00125 22.7137 5 18 5H13C8.28625 5 5.92875 5 4.465 6.465ZM23.72 9.4C23.8791 9.59098 23.9558 9.83732 23.9333 10.0848C23.9108 10.3324 23.7909 10.5608 23.6 10.72L20.855 13.0075C19.7463 13.9325 18.8487 14.68 18.055 15.19C17.23 15.7213 16.4263 16.0563 15.5 16.0563C14.5737 16.0563 13.77 15.72 12.9438 15.19C12.1512 14.68 11.2537 13.9312 10.145 13.0087L7.4 10.7212C7.20888 10.5621 7.0888 10.3336 7.06618 10.0859C7.04356 9.83825 7.12024 9.59175 7.27938 9.40063C7.43851 9.2095 7.66704 9.08942 7.91471 9.0668C8.16237 9.04418 8.40888 9.12087 8.6 9.28L11.3 11.5287C12.4663 12.5 13.275 13.1725 13.96 13.6125C14.6212 14.0375 15.07 14.1813 15.5013 14.1813C15.9325 14.1813 16.3813 14.0388 17.0425 13.6125C17.7263 13.1725 18.5363 12.5 19.7025 11.5287L22.4012 9.27875C22.5924 9.11983 22.8388 9.04333 23.0864 9.06607C23.3339 9.08881 23.561 9.20892 23.72 9.4Z" fill="black"/>
</svg>
