<svg width="18" height="17" viewBox="0 0 18 17" fill="none" xmlns="http://www.w3.org/2000/svg">
<path d="M9.085 13.7336L9 13.8208L8.9065 13.7336C4.869 9.97559 2.2 7.49058 2.2 4.97069C2.2 3.22682 3.475 1.91892 5.175 1.91892C6.484 1.91892 7.759 2.79085 8.2095 3.97668H9.7905C10.241 2.79085 11.516 1.91892 12.825 1.91892C14.525 1.91892 15.8 3.22682 15.8 4.97069C15.8 7.49058 13.131 9.97559 9.085 13.7336ZM12.825 0.175049C11.346 0.175049 9.9265 0.881316 9 1.98867C8.0735 0.881316 6.654 0.175049 5.175 0.175049C2.557 0.175049 0.5 2.27641 0.5 4.97069C0.5 8.25788 3.39 10.9522 7.7675 15.0241L9 16.175L10.2325 15.0241C14.61 10.9522 17.5 8.25788 17.5 4.97069C17.5 2.27641 15.443 0.175049 12.825 0.175049Z" fill="black"/>
</svg>
