<svg width="15" height="18" viewBox="0 0 15 18" fill="none" xmlns="http://www.w3.org/2000/svg">
<g opacity="0.5">
<mask id="path-1-inside-1_179_1422" fill="white">
<path d="M6.8125 16.9895C6.8125 17.3692 7.12032 17.677 7.5 17.677C7.87968 17.677 8.1875 17.3692 8.1875 16.9895H6.8125ZM8.1875 16.9895V2.32288H6.8125V16.9895H8.1875Z"/>
</mask>
<path d="M6.8125 16.9895C6.8125 17.3692 7.12032 17.677 7.5 17.677C7.87968 17.677 8.1875 17.3692 8.1875 16.9895H6.8125ZM8.1875 16.9895V2.32288H6.8125V16.9895H8.1875Z" fill="#1C274C"/>
<path d="M8.1875 16.9895V15.4895H6.8125V16.9895V18.4895H8.1875V16.9895ZM8.1875 2.32288H11.1875V-0.677124H8.1875V2.32288ZM6.8125 2.32288V-0.677124H3.8125V2.32288H6.8125ZM6.8125 16.9895H3.8125C3.8125 19.0261 5.46346 20.677 7.5 20.677V17.677V14.677C8.77717 14.677 9.8125 15.7124 9.8125 16.9895H6.8125ZM7.5 17.677V20.677C9.53654 20.677 11.1875 19.0261 11.1875 16.9895H8.1875H5.1875C5.1875 15.7124 6.22283 14.677 7.5 14.677V17.677ZM8.1875 16.9895H11.1875V2.32288H8.1875H5.1875V16.9895H8.1875ZM8.1875 2.32288V-0.677124H6.8125V2.32288V5.32288H8.1875V2.32288ZM6.8125 2.32288H3.8125V16.9895H6.8125H9.8125V2.32288H6.8125Z" fill="black" mask="url(#path-1-inside-1_179_1422)"/>
</g>
<path d="M13 7.82288L7.5 2.32288L2 7.82288" stroke="#1C274C" stroke-width="3" stroke-linecap="round" stroke-linejoin="round"/>
</svg>
