<svg width="31" height="31" viewBox="0 0 31 31" fill="none" xmlns="http://www.w3.org/2000/svg">
<path d="M8 5.65625C8 3.845 9.47 2.375 11.2812 2.375H19.7188C21.53 2.375 23 3.845 23 5.65625V25.3438C23 26.214 22.6543 27.0486 22.0389 27.6639C21.4236 28.2793 20.589 28.625 19.7188 28.625H11.2812C10.411 28.625 9.57641 28.2793 8.96106 27.6639C8.3457 27.0486 8 26.214 8 25.3438V5.65625ZM13.625 23C13.3764 23 13.1379 23.0988 12.9621 23.2746C12.7863 23.4504 12.6875 23.6889 12.6875 23.9375C12.6875 24.1861 12.7863 24.4246 12.9621 24.6004C13.1379 24.7762 13.3764 24.875 13.625 24.875H17.375C17.6236 24.875 17.8621 24.7762 18.0379 24.6004C18.2137 24.4246 18.3125 24.1861 18.3125 23.9375C18.3125 23.6889 18.2137 23.4504 18.0379 23.2746C17.8621 23.0988 17.6236 23 17.375 23H13.625Z" fill="black"/>
</svg>
