<svg width="18" height="19" viewBox="0 0 18 19" fill="none" xmlns="http://www.w3.org/2000/svg">
<path d="M17.2243 19L10.3443 11.7386C9.79491 12.2326 9.16316 12.6149 8.449 12.8854C7.73485 13.156 7.01703 13.2913 6.29555 13.2913C4.53617 13.2913 3.04706 12.6485 1.82824 11.3629C0.609412 10.0773 0 8.50603 0 6.64913C0 4.79223 0.608679 3.2202 1.82604 1.93305C3.0434 0.645898 4.53177 0.00154891 6.29116 2.78081e-06C8.05054 -0.00154335 9.54038 0.641647 10.7607 1.92957C11.981 3.2175 12.5911 4.78953 12.5911 6.64565C12.5911 7.45119 12.456 8.23082 12.1857 8.98456C11.9154 9.7383 11.5602 10.383 11.1199 10.9188L18 18.179L17.2243 19ZM6.29665 12.1305C7.75426 12.1305 8.9848 11.601 9.98828 10.5419C10.9918 9.4828 11.4935 8.18367 11.4935 6.64449C11.4935 5.10532 10.9918 3.80657 9.98828 2.74825C8.9848 1.68992 7.75426 1.16037 6.29665 1.1596C4.83904 1.15883 3.60813 1.68838 2.60392 2.74825C1.59971 3.80812 1.09797 5.10687 1.0987 6.64449C1.09943 8.18212 1.60117 9.48087 2.60392 10.5407C3.60667 11.6006 4.83721 12.1302 6.29555 12.1294" fill="black"/>
</svg>
