<svg width="30" height="31" viewBox="0 0 30 31" fill="none" xmlns="http://www.w3.org/2000/svg">
<path d="M24.8746 16.325C24.6742 16.0969 24.5637 15.8036 24.5637 15.5C24.5637 15.1964 24.6742 14.9031 24.8746 14.675L26.4746 12.875C26.6509 12.6783 26.7604 12.4309 26.7874 12.1681C26.8143 11.9054 26.7573 11.6408 26.6246 11.4125L24.1246 7.08749C23.9933 6.85939 23.7932 6.67859 23.5531 6.57085C23.3129 6.46311 23.0448 6.43394 22.7871 6.48749L20.4371 6.96249C20.1381 7.02428 19.8268 6.97448 19.562 6.82249C19.2972 6.67051 19.0971 6.42684 18.9996 6.13749L18.2371 3.84999C18.1533 3.60171 17.9935 3.38607 17.7804 3.23354C17.5673 3.08101 17.3117 2.99931 17.0496 2.99999H12.0496C11.777 2.98576 11.5073 3.06115 11.2816 3.21463C11.0559 3.36812 10.8866 3.59126 10.7996 3.84999L10.0996 6.13749C10.0021 6.42684 9.80209 6.67051 9.53727 6.82249C9.27244 6.97448 8.96115 7.02428 8.66213 6.96249L6.24963 6.48749C6.00531 6.45297 5.75625 6.49152 5.53381 6.59829C5.31137 6.70506 5.1255 6.87528 4.99963 7.08749L2.49963 11.4125C2.36358 11.6383 2.3024 11.9013 2.32485 12.164C2.34731 12.4267 2.45223 12.6755 2.62463 12.875L4.21213 14.675C4.41252 14.9031 4.52304 15.1964 4.52304 15.5C4.52304 15.8036 4.41252 16.0969 4.21213 16.325L2.62463 18.125C2.45223 18.3244 2.34731 18.5733 2.32485 18.836C2.3024 19.0986 2.36358 19.3617 2.49963 19.5875L4.99963 23.9125C5.131 24.1406 5.33102 24.3214 5.57119 24.4291C5.81136 24.5369 6.07941 24.566 6.33713 24.5125L8.68713 24.0375C8.98615 23.9757 9.29744 24.0255 9.56227 24.1775C9.82709 24.3295 10.0271 24.5731 10.1246 24.8625L10.8871 27.15C10.9741 27.4087 11.1434 27.6319 11.3691 27.7853C11.5948 27.9388 11.8645 28.0142 12.1371 28H17.1371C17.3992 28.0007 17.6548 27.919 17.8679 27.7664C18.081 27.6139 18.2408 27.3983 18.3246 27.15L19.0871 24.8625C19.1846 24.5731 19.3847 24.3295 19.6495 24.1775C19.9143 24.0255 20.2256 23.9757 20.5246 24.0375L22.8746 24.5125C23.1323 24.566 23.4004 24.5369 23.6406 24.4291C23.8807 24.3214 24.0808 24.1406 24.2121 23.9125L26.7121 19.5875C26.8448 19.3591 26.9018 19.0946 26.8749 18.8319C26.8479 18.5691 26.7384 18.3217 26.5621 18.125L24.8746 16.325ZM23.0121 18L24.0121 19.125L22.4121 21.9L20.9371 21.6C20.0368 21.416 19.1003 21.5689 18.3054 22.0297C17.5104 22.4906 16.9123 23.2273 16.6246 24.1L16.1496 25.5H12.9496L12.4996 24.075C12.2119 23.2023 11.6139 22.4656 10.8189 22.0047C10.0239 21.5439 9.0874 21.391 8.18713 21.575L6.71213 21.875L5.08713 19.1125L6.08713 17.9875C6.70207 17.3 7.04204 16.4099 7.04204 15.4875C7.04204 14.5651 6.70207 13.675 6.08713 12.9875L5.08713 11.8625L6.68713 9.11249L8.16213 9.41249C9.0624 9.59652 9.99891 9.44359 10.7939 8.98274C11.5889 8.52189 12.1869 7.78519 12.4746 6.91249L12.9496 5.49999H16.1496L16.6246 6.92499C16.9123 7.79769 17.5104 8.53439 18.3054 8.99524C19.1003 9.45609 20.0368 9.60902 20.9371 9.42499L22.4121 9.12499L24.0121 11.9L23.0121 13.025C22.4041 13.7109 22.0683 14.5958 22.0683 15.5125C22.0683 16.4291 22.4041 17.314 23.0121 18ZM14.5496 10.5C13.5607 10.5 12.594 10.7932 11.7718 11.3426C10.9495 11.8921 10.3087 12.6729 9.93023 13.5866C9.55179 14.5002 9.45277 15.5055 9.6457 16.4754C9.83863 17.4453 10.3148 18.3363 11.0141 19.0355C11.7134 19.7348 12.6043 20.211 13.5742 20.4039C14.5441 20.5968 15.5494 20.4978 16.463 20.1194C17.3767 19.741 18.1576 19.1001 18.707 18.2778C19.2564 17.4556 19.5496 16.4889 19.5496 15.5C19.5496 14.1739 19.0228 12.9021 18.0852 11.9645C17.1475 11.0268 15.8757 10.5 14.5496 10.5ZM14.5496 18C14.0552 18 13.5718 17.8534 13.1607 17.5787C12.7496 17.304 12.4291 16.9135 12.2399 16.4567C12.0507 15.9999 12.0012 15.4972 12.0977 15.0123C12.1941 14.5273 12.4322 14.0819 12.7819 13.7322C13.1315 13.3826 13.5769 13.1445 14.0619 13.048C14.5469 12.9516 15.0495 13.0011 15.5063 13.1903C15.9632 13.3795 16.3536 13.6999 16.6283 14.1111C16.903 14.5222 17.0496 15.0055 17.0496 15.5C17.0496 16.163 16.7862 16.7989 16.3174 17.2678C15.8486 17.7366 15.2127 18 14.5496 18Z" fill="black"/>
</svg>
