<svg width="34" height="32" viewBox="0 0 34 32" fill="none" xmlns="http://www.w3.org/2000/svg">
<rect x="0.5" y="0.5" width="33" height="31" rx="15.5" stroke="black"/>
<path d="M23.2222 13.6L21.6706 22.6768C21.6073 23.0475 21.4189 23.3834 21.1387 23.6254C20.8585 23.8674 20.5042 24 20.1383 24H13.8617C13.4958 24 13.1415 23.8674 12.8613 23.6254C12.5811 23.3834 12.3927 23.0475 12.3294 22.6768L10.7778 13.6M24 11.2H19.625M19.625 11.2V9.6C19.625 9.17565 19.4611 8.76869 19.1694 8.46863C18.8777 8.16857 18.482 8 18.0694 8H15.9306C15.518 8 15.1223 8.16857 14.8306 8.46863C14.5389 8.76869 14.375 9.17565 14.375 9.6V11.2M19.625 11.2H14.375M10 11.2H14.375" stroke="black" stroke-width="1.5" stroke-linecap="round" stroke-linejoin="round"/>
</svg>
